<svg width="20" height="21" viewBox="0 0 20 21" fill="none" xmlns="http://www.w3.org/2000/svg">
<path fill-rule="evenodd" clip-rule="evenodd" d="M9.8141 11.7206C9.2566 11.7206 8.70076 11.5365 8.23576 11.1681L4.49826 8.15479C4.2291 7.93812 4.18743 7.54395 4.40326 7.27562C4.62076 7.00812 5.0141 6.96562 5.28243 7.18145L9.0166 10.1915C9.48576 10.5631 10.1466 10.5631 10.6191 10.1881L14.3158 7.18312C14.5841 6.96395 14.9774 7.00562 15.1958 7.27395C15.4133 7.54145 15.3724 7.93479 15.1049 8.15312L11.4016 11.1631C10.9333 11.5348 10.3733 11.7206 9.8141 11.7206Z" fill="#4E4E4E"/>
<mask id="mask0_75_540" style="mask-type:luminance" maskUnits="userSpaceOnUse" x="0" y="2" width="19" height="17">
<path fill-rule="evenodd" clip-rule="evenodd" d="M0.833344 2.16663H18.7499V18.4166H0.833344V2.16663Z" fill="white"/>
</mask>
<g mask="url(#mask0_75_540)">
<path fill-rule="evenodd" clip-rule="evenodd" d="M5.69909 17.1666H13.8824C13.8841 17.165 13.8908 17.1666 13.8958 17.1666C14.8466 17.1666 15.6899 16.8266 16.3366 16.1808C17.0874 15.4333 17.4999 14.3591 17.4999 13.1566V7.43329C17.4999 5.10579 15.9783 3.41663 13.8824 3.41663H5.70075C3.60492 3.41663 2.08325 5.10579 2.08325 7.43329V13.1566C2.08325 14.3591 2.49659 15.4333 3.24659 16.1808C3.89325 16.8266 4.73742 17.1666 5.68742 17.1666H5.69909ZM5.68492 18.4166C4.39909 18.4166 3.25075 17.95 2.36409 17.0666C1.37659 16.0816 0.833252 14.6933 0.833252 13.1566V7.43329C0.833252 4.43079 2.92575 2.16663 5.70075 2.16663H13.8824C16.6574 2.16663 18.7499 4.43079 18.7499 7.43329V13.1566C18.7499 14.6933 18.2066 16.0816 17.2191 17.0666C16.3333 17.9491 15.1841 18.4166 13.8958 18.4166H13.8824H5.70075H5.68492Z" fill="#4E4E4E"/>
</g>
</svg>
