<svg width="20" height="20" viewBox="0 0 20 20" fill="none" xmlns="http://www.w3.org/2000/svg">
<path fill-rule="evenodd" clip-rule="evenodd" d="M14.1024 8.50001C13.7574 8.50001 13.4774 8.22001 13.4774 7.87501V6.08584C13.4774 4.33918 12.0566 2.91834 10.3099 2.91834H10.2966C9.45242 2.91834 8.66159 3.24334 8.06409 3.83584C7.46242 4.43084 7.12992 5.22501 7.12659 6.07168V7.87501C7.12659 8.22001 6.84659 8.50001 6.50159 8.50001C6.15659 8.50001 5.87659 8.22001 5.87659 7.87501V6.08584C5.88159 4.88584 6.34575 3.77834 7.18325 2.94834C8.02159 2.11751 9.12825 1.63668 10.3124 1.66834C12.7458 1.66834 14.7274 3.65001 14.7274 6.08584V7.87501C14.7274 8.22001 14.4474 8.50001 14.1024 8.50001Z" fill="#4E4E4E"/>
<path fill-rule="evenodd" clip-rule="evenodd" d="M7.11834 8.44067C5.72001 8.44067 4.58334 9.57734 4.58334 10.9757V14.5498C4.58334 15.9482 5.72001 17.0848 7.11834 17.0848H13.4858C14.8833 17.0848 16.0208 15.9482 16.0208 14.5498V10.9757C16.0208 9.57734 14.8833 8.44067 13.4858 8.44067H7.11834ZM13.4858 18.3348H7.11834C5.03084 18.3348 3.33334 16.6373 3.33334 14.5498V10.9757C3.33334 8.88817 5.03084 7.19067 7.11834 7.19067H13.4858C15.5733 7.19067 17.2708 8.88817 17.2708 10.9757V14.5498C17.2708 16.6373 15.5733 18.3348 13.4858 18.3348Z" fill="#4E4E4E"/>
<path fill-rule="evenodd" clip-rule="evenodd" d="M10.3019 14.313C9.95694 14.313 9.67694 14.033 9.67694 13.688V11.8372C9.67694 11.4922 9.95694 11.2122 10.3019 11.2122C10.6469 11.2122 10.9269 11.4922 10.9269 11.8372V13.688C10.9269 14.033 10.6469 14.313 10.3019 14.313Z" fill="#4E4E4E"/>
</svg>
