<svg width="137" height="33" viewBox="0 0 137 33" fill="none" xmlns="http://www.w3.org/2000/svg">
<path d="M27.5243 1.6913H31.8735V4.30083H32.1219C32.6743 3.41718 33.5165 2.65779 34.6487 2.02267C35.7809 1.35993 37.1339 1.02856 38.7079 1.02856C40.0059 1.02856 41.2346 1.30471 42.3944 1.85698C43.5817 2.38164 44.6174 3.12723 45.5009 4.09372C46.3847 5.06021 47.0888 6.20619 47.6134 7.53166C48.1381 8.82952 48.4004 10.2655 48.4004 11.8394C48.4004 13.4134 48.1381 14.8632 47.6134 16.1887C47.0888 17.4866 46.3847 18.6188 45.5009 19.5852C44.6174 20.5516 43.5817 21.3111 42.3944 21.8633C41.2346 22.388 40.0059 22.6503 38.7079 22.6503C37.1339 22.6503 35.7809 22.3328 34.6487 21.6977C33.5165 21.0349 32.6743 20.2617 32.1219 19.378H31.8735L32.1219 22.1946V30.9346H27.5243V1.6913ZM37.8381 18.384C38.6113 18.384 39.3569 18.2321 40.0749 17.9284C40.8204 17.6246 41.4555 17.1965 41.9802 16.6443C42.5324 16.0644 42.9744 15.374 43.3057 14.5732C43.637 13.7724 43.8028 12.8612 43.8028 11.8394C43.8028 10.8177 43.637 9.90646 43.3057 9.10567C42.9744 8.30486 42.5324 7.62832 41.9802 7.07604C41.4555 6.49614 40.8204 6.05431 40.0749 5.75056C39.3569 5.44681 38.6113 5.29492 37.8381 5.29492C37.0374 5.29492 36.2779 5.44681 35.56 5.75056C34.842 6.05431 34.2069 6.48232 33.6547 7.0346C33.13 7.5869 32.7019 8.27724 32.3706 9.10567C32.0392 9.90646 31.8735 10.8177 31.8735 11.8394C31.8735 12.8612 32.0392 13.7862 32.3706 14.6147C32.7019 15.4155 33.13 16.092 33.6547 16.6443C34.2069 17.1965 34.842 17.6246 35.56 17.9284C36.2779 18.2321 37.0374 18.384 37.8381 18.384Z" fill="#280D4C"/>
<path d="M63.0628 19.5023H62.8144C62.2068 20.3032 61.4198 21.0349 60.4534 21.6977C59.4868 22.3328 58.258 22.6503 56.7669 22.6503C55.6898 22.6503 54.682 22.4708 53.7431 22.1119C52.8042 21.7804 51.9897 21.3111 51.2992 20.7035C50.609 20.0684 50.0566 19.3366 49.6424 18.5081C49.2559 17.6522 49.0626 16.7133 49.0626 15.6916C49.0626 14.6147 49.2696 13.6482 49.6838 12.7921C50.1256 11.9361 50.7194 11.2181 51.465 10.6382C52.2381 10.0583 53.1494 9.61653 54.1987 9.31276C55.2481 8.98141 56.3803 8.81572 57.5953 8.81572C58.9484 8.81572 60.0806 8.95379 60.9917 9.22992C61.903 9.47845 62.5935 9.71317 63.0628 9.93408V9.14709C63.0628 8.53957 62.9248 7.97349 62.6486 7.44882C62.4001 6.92416 62.0411 6.48232 61.5717 6.12335C61.1299 5.73676 60.619 5.44681 60.0392 5.2535C59.4592 5.03259 58.8517 4.92215 58.2166 4.92215C57.1948 4.92215 56.2698 5.12924 55.4414 5.54345C54.6405 5.93005 53.9225 6.56517 53.2874 7.44882L49.6424 5.04641C50.609 3.72093 51.8102 2.72683 53.246 2.06409C54.682 1.37374 56.3112 1.02856 58.1337 1.02856C61.1436 1.02856 63.4633 1.77414 65.0924 3.26529C66.7493 4.75646 67.5777 6.88274 67.5777 9.64413V21.9876H63.0628V19.5023ZM63.0628 13.5377C62.4553 13.1787 61.7787 12.8888 61.0332 12.6679C60.2876 12.447 59.4316 12.3365 58.4652 12.3365C57.0292 12.3365 55.8832 12.6679 55.0272 13.3306C54.1712 13.9933 53.7431 14.7941 53.7431 15.733C53.7431 16.2301 53.8535 16.6719 54.0744 17.0585C54.2955 17.4176 54.5715 17.735 54.9029 18.0112C55.2619 18.2873 55.6623 18.4944 56.1041 18.6325C56.5736 18.7706 57.0429 18.8397 57.5124 18.8397C58.258 18.8397 58.9621 18.7015 59.625 18.4254C60.3152 18.1217 60.909 17.735 61.406 17.2657C61.903 16.7686 62.3034 16.2025 62.6072 15.5673C62.9109 14.9322 63.0628 14.2557 63.0628 13.5377Z" fill="#280D4C"/>
<path d="M77.7489 22.6503C76.5062 22.6503 75.3879 22.4847 74.3937 22.1534C73.3997 21.8219 72.5299 21.3939 71.7843 20.8693C71.0387 20.3169 70.4035 19.6957 69.8788 19.0052C69.3819 18.315 68.9953 17.597 68.7191 16.8514L72.8612 15.1117C73.3307 16.2991 74.0073 17.1828 74.8908 17.7626C75.7746 18.315 76.7271 18.591 77.7489 18.591C78.9086 18.591 79.8199 18.3564 80.4826 17.8869C81.1455 17.4176 81.4768 16.8928 81.4768 16.3129C81.4768 15.733 81.2282 15.236 80.7312 14.8218C80.2342 14.3799 79.2953 13.9933 77.9146 13.662L75.0151 12.9578C74.38 12.8197 73.7311 12.6126 73.0684 12.3365C72.4331 12.0328 71.8394 11.66 71.2872 11.2181C70.735 10.7487 70.2793 10.1964 69.9203 9.56129C69.5889 8.89856 69.4233 8.12536 69.4233 7.24171C69.4233 6.24761 69.6304 5.36396 70.0446 4.59078C70.4864 3.81757 71.08 3.16865 71.8257 2.64399C72.5713 2.11931 73.4273 1.71892 74.3937 1.44278C75.3879 1.16664 76.4372 1.02856 77.5419 1.02856C78.453 1.02856 79.3229 1.12521 80.1513 1.31851C81.0073 1.51181 81.7943 1.80176 82.5122 2.18836C83.2302 2.57495 83.8653 3.07201 84.4177 3.67951C84.9975 4.25941 85.4532 4.94975 85.7845 5.75056L81.7253 7.44882C81.3386 6.56517 80.7312 5.93005 79.9028 5.54345C79.0744 5.12924 78.2321 4.92215 77.3761 4.92215C76.9895 4.92215 76.5891 4.97737 76.1749 5.08782C75.7883 5.17066 75.4293 5.30874 75.098 5.50203C74.7942 5.66772 74.5319 5.88862 74.3109 6.16477C74.1177 6.4409 74.0209 6.74467 74.0209 7.07604C74.0209 7.62832 74.2557 8.07014 74.7251 8.40151C75.2222 8.70526 75.9677 8.98141 76.9619 9.22992L80.0684 10.0169C82.167 10.5416 83.6998 11.3424 84.6662 12.4193C85.6604 13.4687 86.1573 14.7113 86.1573 16.1472C86.1573 17.0309 85.9503 17.8593 85.5361 18.6325C85.1494 19.4058 84.5833 20.096 83.8378 20.7035C83.0922 21.3111 82.1948 21.7804 81.1455 22.1119C80.1237 22.4708 78.9915 22.6503 77.7489 22.6503Z" fill="#280D4C"/>
<path d="M106.77 16.81C106.383 17.6107 105.9 18.3701 105.32 19.0881C104.768 19.7785 104.105 20.3998 103.332 20.952C102.586 21.4768 101.716 21.8909 100.722 22.1946C99.7282 22.4984 98.6375 22.6503 97.4501 22.6503C95.9037 22.6503 94.4815 22.388 93.1837 21.8633C91.8859 21.3111 90.7674 20.5516 89.8285 19.5852C88.8897 18.6188 88.158 17.4727 87.6333 16.1472C87.1087 14.8218 86.8463 13.3858 86.8463 11.8394C86.8463 10.2931 87.1087 8.85714 87.6333 7.53166C88.158 6.20619 88.8897 5.06021 89.8285 4.09372C90.7674 3.12723 91.8859 2.38164 93.1837 1.85698C94.4815 1.30471 95.9037 1.02856 97.4501 1.02856C98.6375 1.02856 99.7144 1.18044 100.681 1.4842C101.675 1.78794 102.545 2.21598 103.29 2.76825C104.064 3.29291 104.726 3.91423 105.279 4.6322C105.831 5.32254 106.273 6.05431 106.604 6.82751L102.379 8.60862C101.91 7.55928 101.261 6.74467 100.432 6.16477C99.6039 5.58487 98.5546 5.29492 97.2844 5.29492C96.5111 5.29492 95.7656 5.46061 95.0476 5.79198C94.3573 6.09573 93.7359 6.53756 93.1837 7.11745C92.659 7.66974 92.231 8.34629 91.8996 9.14709C91.5958 9.94788 91.444 10.8454 91.444 11.8394C91.444 12.8336 91.5958 13.731 91.8996 14.5318C92.231 15.3326 92.659 16.023 93.1837 16.6029C93.7359 17.1551 94.3573 17.597 95.0476 17.9284C95.7656 18.2321 96.5111 18.384 97.2844 18.384C98.5546 18.384 99.6315 18.0941 100.515 17.5141C101.427 16.9066 102.131 16.0782 102.628 15.0289L106.77 16.81Z" fill="#280D4C"/>
<path d="M117.677 1.02856C119.223 1.02856 120.645 1.30471 121.943 1.85698C123.241 2.38164 124.359 3.12723 125.298 4.09372C126.237 5.06021 126.969 6.20619 127.494 7.53166C128.018 8.85714 128.281 10.2931 128.281 11.8394C128.281 13.3858 128.018 14.8218 127.494 16.1472C126.969 17.4727 126.237 18.6188 125.298 19.5852C124.359 20.5516 123.241 21.3111 121.943 21.8633C120.645 22.388 119.223 22.6503 117.677 22.6503C116.13 22.6503 114.708 22.388 113.41 21.8633C112.113 21.3111 110.994 20.5516 110.055 19.5852C109.116 18.6188 108.385 17.4727 107.86 16.1472C107.335 14.8218 107.073 13.3858 107.073 11.8394C107.073 10.2931 107.335 8.85714 107.86 7.53166C108.385 6.20619 109.116 5.06021 110.055 4.09372C110.994 3.12723 112.113 2.38164 113.41 1.85698C114.708 1.30471 116.13 1.02856 117.677 1.02856ZM117.677 18.384C118.45 18.384 119.196 18.2321 119.914 17.9284C120.632 17.6246 121.267 17.1965 121.819 16.6443C122.399 16.092 122.854 15.4155 123.186 14.6147C123.517 13.7862 123.683 12.8612 123.683 11.8394C123.683 10.8177 123.517 9.90646 123.186 9.10567C122.854 8.27724 122.399 7.5869 121.819 7.0346C121.267 6.48232 120.632 6.05431 119.914 5.75056C119.196 5.44681 118.45 5.29492 117.677 5.29492C116.904 5.29492 116.158 5.44681 115.44 5.75056C114.722 6.05431 114.073 6.48232 113.493 7.0346C112.941 7.5869 112.499 8.27724 112.168 9.10567C111.836 9.90646 111.671 10.8177 111.671 11.8394C111.671 12.8612 111.836 13.7862 112.168 14.6147C112.499 15.4155 112.941 16.092 113.493 16.6443C114.073 17.1965 114.722 17.6246 115.44 17.9284C116.158 18.2321 116.904 18.384 117.677 18.384Z" fill="#280D4C"/>
<path d="M132.976 22.236C132.092 22.236 131.333 21.9322 130.698 21.3249C130.09 20.6896 129.787 19.9303 129.787 19.0466C129.787 18.163 130.09 17.4036 130.698 16.7685C131.333 16.1334 132.092 15.8158 132.976 15.8158C133.86 15.8158 134.619 16.1334 135.254 16.7685C135.889 17.4036 136.207 18.163 136.207 19.0466C136.207 19.9303 135.889 20.6896 135.254 21.3249C134.619 21.9322 133.86 22.236 132.976 22.236Z" fill="#1097FF"/>
<path d="M6.76544 6.09424H18.6049" stroke="#1097FF" stroke-width="1.34247"/>
<path d="M18.1041 3.38269H4.76341C4.22059 3.38269 3.66354 3.46259 3.22468 3.78544C1.83041 4.80869 0.755703 7.09054 2.9259 9.15129C3.5344 9.72914 4.38585 9.93926 5.22305 9.93926H17.871C18.7389 9.93926 20.2963 10.0629 20.2963 12.7147V20.8723C20.2963 23.302 18.3374 25.2707 15.922 25.2707H6.03949C3.62743 25.2707 1.87308 23.5668 1.7352 20.9708L1.69799 6.84757" stroke="black" stroke-width="1.64161" stroke-linecap="round" stroke-linejoin="round"/>
</svg>
