<svg width="24" height="24" viewBox="0 0 24 24" fill="none" xmlns="http://www.w3.org/2000/svg">
<g id="fluent:share-24-regular">
<path id="Vector" d="M6.74695 3.99998H10.2109C10.401 4.00004 10.5839 4.07222 10.7227 4.20195C10.8616 4.33168 10.946 4.50928 10.959 4.69886C10.9719 4.88844 10.9124 5.07587 10.7925 5.22328C10.6726 5.37068 10.5012 5.46708 10.3129 5.49298L10.2109 5.49998H6.74695C6.17698 5.49989 5.62822 5.71612 5.21152 6.10498C4.79481 6.49385 4.54121 7.02637 4.50195 7.59498L4.49695 7.74998V17.25C4.49713 17.8199 4.71361 18.3686 5.10266 18.7851C5.49171 19.2016 6.02433 19.455 6.59295 19.494L6.74695 19.5H16.2469C16.8172 19.5003 17.3664 19.284 17.7833 18.895C18.2003 18.5059 18.4539 17.9729 18.4929 17.404L18.4979 17.25V16.752C18.498 16.562 18.5702 16.379 18.6999 16.2402C18.8296 16.1013 19.0072 16.0169 19.1968 16.004C19.3864 15.991 19.5738 16.0505 19.7212 16.1704C19.8687 16.2903 19.965 16.4617 19.9909 16.65L19.9979 16.752V17.25C19.9978 18.21 19.6294 19.1333 18.9688 19.8299C18.3082 20.5264 17.4056 20.943 16.4469 20.994L16.2469 21H6.74695C5.78679 21.0001 4.86318 20.6318 4.16643 19.9712C3.46969 19.3105 3.0529 18.4078 3.00195 17.449L2.99695 17.249V7.74898C2.99712 6.78915 3.36532 5.86593 4.02573 5.16943C4.68615 4.47293 5.58849 4.05617 6.54695 4.00498L6.74695 3.99998ZM14.5009 6.51998V3.74998C14.5009 3.61202 14.5388 3.47672 14.6107 3.35895C14.6825 3.24117 14.7854 3.1455 14.9081 3.08244C15.0308 3.01939 15.1686 2.99139 15.3061 3.00155C15.4437 3.0117 15.5758 3.0596 15.6879 3.13998L15.7699 3.20798L21.7649 8.95798C22.0449 9.22698 22.0699 9.65798 21.8409 9.95598L21.7649 10.041L15.7699 15.793C15.6704 15.8886 15.5464 15.9549 15.4116 15.9845C15.2769 16.0142 15.1365 16.0061 15.006 15.9611C14.8755 15.9161 14.76 15.836 14.6721 15.7296C14.5843 15.6232 14.5274 15.4946 14.5079 15.358L14.5009 15.251V12.526L14.1579 12.556C11.7579 12.806 9.45795 13.887 7.24295 15.816C6.72295 16.269 5.92095 15.841 6.00595 15.158C6.67095 9.83798 9.45295 6.90698 14.2019 6.53898L14.5019 6.51898L14.5009 6.51998ZM16.0009 5.50798V7.24998C16.0009 7.44889 15.9219 7.63966 15.7813 7.78031C15.6406 7.92096 15.4499 7.99998 15.2509 7.99998C11.3779 7.99998 8.97695 9.67598 7.93995 13.157L7.85995 13.435L8.21295 13.198C10.4489 11.737 12.7989 11 15.2499 11C15.4313 11 15.6066 11.0658 15.7432 11.1851C15.8798 11.3045 15.9685 11.4692 15.9929 11.649L15.9999 11.75V13.493L20.1619 9.49998L16.0019 5.50798H16.0009Z" fill="#4E4E4E"/>
</g>
</svg>
