<svg width="80" height="80" viewBox="0 0 80 80" fill="none" xmlns="http://www.w3.org/2000/svg">
<g clip-path="url(#clip0_98_4736)">
<rect width="80" height="80" rx="40" fill="black"/>
<rect x="122" y="-8" width="94" height="132" transform="rotate(90 122 -8)" fill="white"/>
<rect x="121.5" y="-7.5" width="93" height="131" transform="rotate(90 121.5 -7.5)" stroke="#B5DFFF" stroke-opacity="0.19"/>
<mask id="mask0_98_4736" style="mask-type:alpha" maskUnits="userSpaceOnUse" x="-10" y="-8" width="132" height="94">
<rect x="121.5" y="-7.5" width="93" height="131" transform="rotate(90 121.5 -7.5)" fill="white" stroke="#B5DFFF"/>
</mask>
<g mask="url(#mask0_98_4736)">
<path d="M-36.291 0.000244141L-26.7569 9.53434C-24.3734 11.9178 -20.5091 11.9178 -18.1256 9.53433L-12.9072 4.31592C-10.5237 1.93244 -6.65929 1.93244 -4.27581 4.31592L0.942608 9.53434C3.32609 11.9178 7.19047 11.9178 9.57396 9.53433L14.7924 4.31592C17.1759 1.93244 21.0402 1.93244 23.4237 4.31592L28.6421 9.53434C31.0256 11.9178 34.89 11.9178 37.2735 9.53433L42.4919 4.31592C44.8754 1.93244 48.7398 1.93244 51.1233 4.31592L56.3417 9.53434C58.7252 11.9178 62.5895 11.9178 64.973 9.53433L70.1914 4.31592C72.5749 1.93244 76.4393 1.93244 78.8228 4.31592L84.0412 9.53434C86.4247 11.9178 90.2891 11.9178 92.6726 9.53433L97.891 4.31592C100.274 1.93244 104.139 1.93244 106.522 4.31592L111.741 9.53434C114.124 11.9178 117.989 11.9178 120.372 9.53433L125.59 4.31592C127.974 1.93244 131.838 1.93244 134.222 4.31592L139.44 9.53434C141.824 11.9178 145.688 11.9178 148.072 9.53433L153.29 4.31592C155.674 1.93244 159.538 1.93244 161.921 4.31592L167.14 9.53434C169.523 11.9178 173.388 11.9178 175.771 9.53433L180.99 4.31592C183.373 1.93244 187.237 1.93244 189.621 4.31592L194.839 9.53434C197.223 11.9178 201.087 11.9178 203.471 9.53433L208.689 4.31592C211.073 1.93244 214.937 1.93244 217.32 4.31592L222.539 9.53434C224.922 11.9178 228.787 11.9178 231.17 9.53433L236.389 4.31592C238.772 1.93244 242.636 1.93244 245.02 4.31592L250.238 9.53434C252.622 11.9178 256.486 11.9178 258.87 9.53433L264.088 4.31592C266.472 1.93244 270.336 1.93244 272.72 4.31592L277.938 9.53434C280.321 11.9178 284.186 11.9178 286.569 9.53433L291.788 4.31592C294.171 1.93244 298.036 1.93244 300.419 4.31592L309.953 13.85" stroke="#B5DFFF" stroke-opacity="0.19" stroke-width="1.40845"/>
<path d="M-36.291 15.9624L-26.7569 25.4965C-24.3734 27.88 -20.5091 27.88 -18.1256 25.4965L-12.9072 20.2781C-10.5237 17.8946 -6.65929 17.8946 -4.27581 20.2781L0.942608 25.4965C3.32609 27.88 7.19047 27.88 9.57396 25.4965L14.7924 20.2781C17.1759 17.8946 21.0402 17.8946 23.4237 20.2781L28.6421 25.4965C31.0256 27.88 34.89 27.88 37.2735 25.4965L42.4919 20.2781C44.8754 17.8946 48.7398 17.8946 51.1233 20.2781L56.3417 25.4965C58.7252 27.88 62.5895 27.88 64.973 25.4965L70.1914 20.2781C72.5749 17.8946 76.4393 17.8946 78.8228 20.2781L84.0412 25.4965C86.4247 27.88 90.2891 27.88 92.6726 25.4965L97.891 20.2781C100.274 17.8946 104.139 17.8946 106.522 20.2781L111.741 25.4965C114.124 27.88 117.989 27.88 120.372 25.4965L125.59 20.2781C127.974 17.8946 131.838 17.8946 134.222 20.2781L139.44 25.4965C141.824 27.88 145.688 27.88 148.072 25.4965L153.29 20.2781C155.674 17.8946 159.538 17.8946 161.921 20.2781L167.14 25.4965C169.523 27.88 173.388 27.88 175.771 25.4965L180.99 20.2781C183.373 17.8946 187.237 17.8946 189.621 20.2781L194.839 25.4965C197.223 27.88 201.087 27.88 203.471 25.4965L208.689 20.2781C211.073 17.8946 214.937 17.8946 217.32 20.2781L222.539 25.4965C224.922 27.88 228.787 27.88 231.17 25.4965L236.389 20.2781C238.772 17.8946 242.636 17.8946 245.02 20.2781L250.238 25.4965C252.622 27.88 256.486 27.88 258.87 25.4965L264.088 20.2781C266.472 17.8946 270.336 17.8946 272.72 20.2781L277.938 25.4965C280.321 27.88 284.186 27.88 286.569 25.4965L291.788 20.2781C294.171 17.8946 298.036 17.8946 300.419 20.2781L309.953 29.8122" stroke="#B5DFFF" stroke-opacity="0.19" stroke-width="1.40845"/>
<path d="M-36.291 31.9248L-26.7569 41.4589C-24.3734 43.8424 -20.5091 43.8424 -18.1256 41.4589L-12.9072 36.2405C-10.5237 33.857 -6.65929 33.857 -4.27581 36.2405L0.942608 41.4589C3.32609 43.8424 7.19047 43.8424 9.57396 41.4589L14.7924 36.2405C17.1759 33.857 21.0402 33.857 23.4237 36.2405L28.6421 41.4589C31.0256 43.8424 34.89 43.8424 37.2735 41.4589L42.4919 36.2405C44.8754 33.857 48.7398 33.857 51.1233 36.2405L56.3417 41.4589C58.7252 43.8424 62.5895 43.8424 64.973 41.4589L70.1914 36.2405C72.5749 33.857 76.4393 33.857 78.8228 36.2405L84.0412 41.4589C86.4247 43.8424 90.2891 43.8424 92.6726 41.4589L97.891 36.2405C100.274 33.857 104.139 33.857 106.522 36.2405L111.741 41.4589C114.124 43.8424 117.989 43.8424 120.372 41.4589L125.59 36.2405C127.974 33.857 131.838 33.857 134.222 36.2405L139.44 41.4589C141.824 43.8424 145.688 43.8424 148.072 41.4589L153.29 36.2405C155.674 33.857 159.538 33.857 161.921 36.2405L167.14 41.4589C169.523 43.8424 173.388 43.8424 175.771 41.4589L180.99 36.2405C183.373 33.857 187.237 33.857 189.621 36.2405L194.839 41.4589C197.223 43.8424 201.087 43.8424 203.471 41.4589L208.689 36.2405C211.073 33.857 214.937 33.857 217.32 36.2405L222.539 41.4589C224.922 43.8424 228.787 43.8424 231.17 41.4589L236.389 36.2405C238.772 33.857 242.636 33.857 245.02 36.2405L250.238 41.4589C252.622 43.8424 256.486 43.8424 258.87 41.4589L264.088 36.2405C266.472 33.857 270.336 33.857 272.72 36.2405L277.938 41.4589C280.321 43.8424 284.186 43.8424 286.569 41.4589L291.788 36.2405C294.171 33.857 298.036 33.857 300.419 36.2405L309.953 45.7746" stroke="#B5DFFF" stroke-opacity="0.19" stroke-width="1.40845"/>
<path d="M-36.291 47.8872L-26.7569 57.4213C-24.3734 59.8048 -20.5091 59.8048 -18.1256 57.4213L-12.9072 52.2029C-10.5237 49.8194 -6.65929 49.8194 -4.27581 52.2029L0.942608 57.4213C3.32609 59.8048 7.19047 59.8048 9.57396 57.4213L14.7924 52.2029C17.1759 49.8194 21.0402 49.8194 23.4237 52.2029L28.6421 57.4213C31.0256 59.8048 34.89 59.8048 37.2735 57.4213L42.4919 52.2029C44.8754 49.8194 48.7398 49.8194 51.1233 52.2029L56.3417 57.4213C58.7252 59.8048 62.5895 59.8048 64.973 57.4213L70.1914 52.2029C72.5749 49.8194 76.4393 49.8194 78.8228 52.2029L84.0412 57.4213C86.4247 59.8048 90.2891 59.8048 92.6726 57.4213L97.891 52.2029C100.274 49.8194 104.139 49.8194 106.522 52.2029L111.741 57.4213C114.124 59.8048 117.989 59.8048 120.372 57.4213L125.59 52.2029C127.974 49.8194 131.838 49.8194 134.222 52.2029L139.44 57.4213C141.824 59.8048 145.688 59.8048 148.072 57.4213L153.29 52.2029C155.674 49.8194 159.538 49.8194 161.921 52.2029L167.14 57.4213C169.523 59.8048 173.388 59.8048 175.771 57.4213L180.99 52.2029C183.373 49.8194 187.237 49.8194 189.621 52.2029L194.839 57.4213C197.223 59.8048 201.087 59.8048 203.471 57.4213L208.689 52.2029C211.073 49.8194 214.937 49.8194 217.32 52.2029L222.539 57.4213C224.922 59.8048 228.787 59.8048 231.17 57.4213L236.389 52.2029C238.772 49.8194 242.636 49.8194 245.02 52.2029L250.238 57.4213C252.622 59.8048 256.486 59.8048 258.87 57.4213L264.088 52.2029C266.472 49.8194 270.336 49.8194 272.72 52.2029L277.938 57.4213C280.321 59.8048 284.186 59.8048 286.569 57.4213L291.788 52.2029C294.171 49.8194 298.036 49.8194 300.419 52.2029L309.953 61.737" stroke="#B5DFFF" stroke-opacity="0.19" stroke-width="1.40845"/>
<path d="M-36.291 63.8496L-26.7569 73.3837C-24.3734 75.7672 -20.5091 75.7672 -18.1256 73.3837L-12.9072 68.1653C-10.5237 65.7818 -6.65929 65.7818 -4.27581 68.1653L0.942608 73.3837C3.32609 75.7672 7.19047 75.7672 9.57396 73.3837L14.7924 68.1653C17.1759 65.7818 21.0402 65.7818 23.4237 68.1653L28.6421 73.3837C31.0256 75.7672 34.89 75.7672 37.2735 73.3837L42.4919 68.1653C44.8754 65.7818 48.7398 65.7818 51.1233 68.1653L56.3417 73.3837C58.7252 75.7672 62.5895 75.7672 64.973 73.3837L70.1914 68.1653C72.5749 65.7818 76.4393 65.7818 78.8228 68.1653L84.0412 73.3837C86.4247 75.7672 90.2891 75.7672 92.6726 73.3837L97.891 68.1653C100.274 65.7818 104.139 65.7818 106.522 68.1653L111.741 73.3837C114.124 75.7672 117.989 75.7672 120.372 73.3837L125.59 68.1653C127.974 65.7818 131.838 65.7818 134.222 68.1653L139.44 73.3837C141.824 75.7672 145.688 75.7672 148.072 73.3837L153.29 68.1653C155.674 65.7818 159.538 65.7818 161.921 68.1653L167.14 73.3837C169.523 75.7672 173.388 75.7672 175.771 73.3837L180.99 68.1653C183.373 65.7818 187.237 65.7818 189.621 68.1653L194.839 73.3837C197.223 75.7672 201.087 75.7672 203.471 73.3837L208.689 68.1653C211.073 65.7818 214.937 65.7818 217.32 68.1653L222.539 73.3837C224.922 75.7672 228.787 75.7672 231.17 73.3837L236.389 68.1653C238.772 65.7818 242.636 65.7818 245.02 68.1653L250.238 73.3837C252.622 75.7672 256.486 75.7672 258.87 73.3837L264.088 68.1653C266.472 65.7818 270.336 65.7818 272.72 68.1653L277.938 73.3837C280.321 75.7672 284.186 75.7672 286.569 73.3837L291.788 68.1653C294.171 65.7818 298.036 65.7818 300.419 68.1653L309.953 77.6994" stroke="#B5DFFF" stroke-opacity="0.19" stroke-width="1.40845"/>
</g>
<path fill-rule="evenodd" clip-rule="evenodd" d="M47.923 34.4802L39.0899 43.3179L33.831 38.0506L35.7218 36.1628L39.0909 39.5373L46.0332 32.5914L47.923 34.4802Z" fill="black"/>
<path fill-rule="evenodd" clip-rule="evenodd" d="M25.0256 23.0078H55.7266V40.4645C55.7266 46.9207 51.8419 51.2578 48.1641 53.9063C46.3171 55.2365 44.4786 56.1758 43.1059 56.7824C42.4177 57.0865 41.8416 57.3092 41.4335 57.4571C41.2293 57.5311 41.0668 57.5865 40.9529 57.6241C40.8959 57.643 40.851 57.6574 40.8192 57.6675L40.7812 57.6794L40.7697 57.6829L40.7658 57.6841C40.7652 57.6843 40.7633 57.6849 40.3761 56.4062C39.989 57.6849 39.9884 57.6847 39.9879 57.6845L39.9826 57.6829L39.9711 57.6794L39.9331 57.6675C39.9012 57.6574 39.8564 57.643 39.7994 57.6241C39.6855 57.5865 39.5229 57.5311 39.3188 57.4571C38.9106 57.3092 38.3346 57.0865 37.6464 56.7824C36.2737 56.1758 34.4352 55.2365 32.5881 53.9063C28.9104 51.2578 25.0256 46.9207 25.0256 40.4645V23.0078ZM40.3761 56.4062L39.9879 57.6845L40.3761 57.8021L40.7633 57.6849L40.3761 56.4062ZM40.3761 54.9976C40.4215 54.9816 40.4706 54.9641 40.5231 54.9451C40.8814 54.8152 41.4003 54.615 42.0259 54.3385C43.281 53.7839 44.9461 52.9311 46.6027 51.7382C49.9322 49.3404 53.0547 45.7066 53.0547 40.4645V25.6797H27.6975V40.4645C27.6975 45.7066 30.82 49.3404 34.1496 51.7382C35.8061 52.9311 37.4713 53.7839 38.7263 54.3385C39.352 54.615 39.8708 54.8152 40.2291 54.9451C40.2817 54.9641 40.3307 54.9816 40.3761 54.9976Z" fill="black"/>
</g>
<defs>
<clipPath id="clip0_98_4736">
<rect width="80" height="80" rx="40" fill="white"/>
</clipPath>
</defs>
</svg>
