<svg width="20" height="20" viewBox="0 0 20 20" fill="none" xmlns="http://www.w3.org/2000/svg">
<path fill-rule="evenodd" clip-rule="evenodd" d="M9.99971 8.03442C8.89137 8.03442 7.99054 8.93609 7.99054 10.0444C7.99054 11.1519 8.89137 12.0528 9.99971 12.0528C11.108 12.0528 12.0097 11.1519 12.0097 10.0444C12.0097 8.93609 11.108 8.03442 9.99971 8.03442ZM9.99971 13.3028C8.20221 13.3028 6.74054 11.8411 6.74054 10.0444C6.74054 8.24692 8.20221 6.78442 9.99971 6.78442C11.7972 6.78442 13.2597 8.24692 13.2597 10.0444C13.2597 11.8411 11.7972 13.3028 9.99971 13.3028Z" fill="#4E4E4E"/>
<mask id="mask0_75_511" style="mask-type:luminance" maskUnits="userSpaceOnUse" x="1" y="3" width="18" height="14">
<path fill-rule="evenodd" clip-rule="evenodd" d="M1.66681 3.3335H18.3333V16.7543H1.66681V3.3335Z" fill="white"/>
</mask>
<g mask="url(#mask0_75_511)">
<path fill-rule="evenodd" clip-rule="evenodd" d="M2.97493 10.0438C4.52493 13.4679 7.13577 15.5038 9.99994 15.5046C12.8641 15.5038 15.4749 13.4679 17.0249 10.0438C15.4749 6.62042 12.8641 4.58459 9.99994 4.58375C7.1366 4.58459 4.52493 6.62042 2.97493 10.0438ZM10.0016 16.7546H9.99827H9.99743C6.55077 16.7521 3.45577 14.3363 1.71743 10.2904C1.64993 10.1329 1.64993 9.95459 1.71743 9.79709C3.45577 5.75209 6.5516 3.33625 9.99743 3.33375C9.9991 3.33292 9.9991 3.33292 9.99993 3.33375C10.0016 3.33292 10.0016 3.33292 10.0024 3.33375C13.4491 3.33625 16.5441 5.75209 18.2824 9.79709C18.3508 9.95459 18.3508 10.1329 18.2824 10.2904C16.5449 14.3363 13.4491 16.7521 10.0024 16.7546H10.0016Z" fill="#4E4E4E"/>
</g>
</svg>
